<svg width="35" height="35" viewBox="0 0 35 35" fill="none" xmlns="http://www.w3.org/2000/svg">
<g id="Shopping cart" clip-path="url(#clip0_316_58)">
<path id="Vector" d="M10.2083 26.25C8.60408 26.25 7.30617 27.5625 7.30617 29.1667C7.30617 30.7708 8.60408 32.0833 10.2083 32.0833C11.8124 32.0833 13.1249 30.7708 13.1249 29.1667C13.1249 27.5625 11.8124 26.25 10.2083 26.25ZM1.45825 2.91666V5.83332H4.37492L9.62492 16.9021L7.65617 20.475C7.42283 20.8833 7.29158 21.3646 7.29158 21.875C7.29158 23.4792 8.60408 24.7917 10.2083 24.7917H27.7083V21.875H10.8208C10.6166 21.875 10.4562 21.7146 10.4562 21.5104L10.4999 21.3354L11.8124 18.9583H22.677C23.7708 18.9583 24.7332 18.3604 25.2291 17.4562L30.4499 7.99166C30.5666 7.78749 30.6249 7.53957 30.6249 7.29166C30.6249 6.48957 29.9687 5.83332 29.1666 5.83332H7.59784L6.227 2.91666H1.45825ZM24.7916 26.25C23.1874 26.25 21.8895 27.5625 21.8895 29.1667C21.8895 30.7708 23.1874 32.0833 24.7916 32.0833C26.3958 32.0833 27.7083 30.7708 27.7083 29.1667C27.7083 27.5625 26.3958 26.25 24.7916 26.25Z" fill="black"/>
</g>
<defs>
<clipPath id="clip0_316_58">
<rect width="35" height="35" fill="white"/>
</clipPath>
</defs>
</svg>
